<mxfile host="app.diagrams.net" modified="2024-07-08T07:37:21.356Z" agent="Mozilla/5.0 (Windows NT 10.0; Win64; x64) AppleWebKit/537.36 (KHTML, like Gecko) Chrome/124.0.0.0 Whale/3.26.244.21 Safari/537.36" version="24.6.4" etag="DsGFdONs3794m7Z-72DI" type="github">
  <diagram name="페이지-1" id="TyUFcYf5KWKSOQwb3dV8">
    <mxGraphModel>
      <root>
        <mxCell id="0" />
        <mxCell id="1" parent="0" />
      </root>
    </mxGraphModel>
  </diagram>
</mxfile>
